<svg aria-hidden="true" style="position: absolute; width: 0; height: 0; overflow: hidden;" version="1.1" xmlns="http://www.w3.org/2000/svg" xmlns:xlink="http://www.w3.org/1999/xlink">
<defs>
<symbol id="icon-search" viewBox="0 0 24 24">
<path d="M0.793 21.168l1.414 1.414 4.385-4.385-1.377-1.451-4.422 4.422zM14.125 1c-4.9 0-8.875 3.974-8.875 8.875 0 1.919 0.617 3.69 1.652 5.143l1.67 1.76c1.521 1.227 3.447 1.973 5.553 1.973 4.902 0 8.875-3.974 8.875-8.875s-3.973-8.876-8.875-8.876zM14.125 16.75c-3.791 0-6.875-3.084-6.875-6.875s3.084-6.875 6.875-6.875 6.875 3.084 6.875 6.875-3.084 6.875-6.875 6.875z"></path>
</symbol>
<symbol id="icon-chat-3" viewBox="0 0 24 24">
<path d="M6.5 9c0.828 0 1.5 0.671 1.5 1.5s-0.672 1.5-1.5 1.5-1.5-0.671-1.5-1.5 0.672-1.5 1.5-1.5zM11.5 9c0.828 0 1.5 0.671 1.5 1.5s-0.672 1.5-1.5 1.5-1.5-0.671-1.5-1.5 0.672-1.5 1.5-1.5zM16.5 9c0.828 0 1.5 0.671 1.5 1.5s-0.672 1.5-1.5 1.5-1.5-0.671-1.5-1.5 0.672-1.5 1.5-1.5zM20 1h-17c-1.654 0-3 1.346-3 3v12c0 1.654 2 2 3 2v6l9-6h8c1.654 0 3-1.346 3-3v-11c0-1.654-1.346-3-3-3zM21 15c0 0.551-0.449 1-1 1h-9l-6 5v-5h-2c-0.551 0-1-0.449-1-1v-11c0-0.551 0.449-1 1-1h17c0.551 0 1 0.449 1 1v11z"></path>
</symbol>
<symbol id="icon-enter" viewBox="0 0 24 24">
<path d="M12.199 11.566l-4.199-4.199v2.633h-7v3h7v2.766l4.199-4.2zM9 1v3.367l2 2v-3.367h8.089l-6.089 2v12h-2v-0.234l-2 2v0.234h4v4l9-3v-19z"></path>
</symbol>
<symbol id="icon-creditcards" viewBox="0 0 24 24">
<path d="M22 7h-2v-0.59c0-1.101-0.896-2.41-2-2.41h-16c-1.104 0-2 1.309-2 2.41v9c0 1.104 0.896 1.59 2 1.59h1v2.41c0 1.104 0.896 1.59 2 1.59h17c1.104 0 2-0.486 2-1.59v-10c0-1.101-0.896-2.41-2-2.41zM3 15h-1v-4h1v4zM3.278 8h-1.278v-2h16v1h-13c-0.736 0-1.375 1-1.722 1zM5 19v-10h17l0.002 10h-17.002zM16 16h5v-4h-5v4zM17 13h3v2h-3v-2zM8 18h4v-1h-4v1zM6 12h7v-2h-7v2zM13.002 18h0.996v-1h-0.996v1zM6 18h0.996v-1h-0.996v1z"></path>
</symbol>
<symbol id="icon-atom" viewBox="0 0 24 24">
<path d="M12 8.999c-1.656 0-3 1.344-3 3s1.344 3 3 3 3-1.344 3-3-1.344-3-3-3zM21.231 9.365c-0.325-0.105-0.618-0.272-0.869-0.493-0.404 0.744-0.902 1.507-1.439 2.272-0.835-1.073-1.788-2.156-2.851-3.219-1.055-1.055-2.142-2.012-3.226-2.854 2.577-1.816 5.054-2.909 6.817-2.909 0.716 0 1.264 0.185 1.628 0.549 0.396 0.396 0.571 1.018 0.54 1.806 0.057-0.004 0.11-0.018 0.168-0.018 0.288 0 0.562 0.059 0.819 0.148 0.062-1.121-0.204-2.027-0.82-2.644-0.559-0.559-1.344-0.842-2.335-0.842-2.043 0-4.812 1.219-7.662 3.277-2.85-2.058-5.619-3.278-7.662-3.278-0.212 0-0.411 0.020-0.604 0.046 0.273 0.264 0.479 0.59 0.61 0.955 1.763 0.002 4.238 1.095 6.813 2.91-1.086 0.844-2.174 1.801-3.228 2.856-1.050 1.051-2.007 2.14-2.856 3.234-0.855-1.211-1.56-2.412-2.065-3.553-0.346-0.779-0.577-1.494-0.712-2.14-0.099 0.013-0.195 0.031-0.297 0.031-0.258 0-0.502-0.051-0.736-0.123 0.134 0.796 0.405 1.678 0.831 2.638 0.567 1.281 1.365 2.632 2.345 3.988-0.979 1.354-1.775 2.705-2.343 3.985-1.209 2.727-1.241 4.861-0.091 6.011 0.559 0.559 1.344 0.842 2.335 0.842 3.020 0 7.626-2.656 11.735-6.767 1.053-1.054 2.011-2.146 2.859-3.243 2.77 3.914 3.564 7.25 2.355 8.459-0.364 0.364-0.912 0.549-1.628 0.549-0.943 0-2.095-0.318-3.354-0.887-0.133 0.32-0.33 0.604-0.575 0.842 1.458 0.675 2.804 1.045 3.929 1.045 0.991 0 1.776-0.283 2.335-0.842 1.738-1.738 0.641-5.731-2.449-10.011 0.635-0.881 1.215-1.761 1.683-2.62zM4.341 21.84c-0.716 0-1.264-0.185-1.628-0.549-0.825-0.825-0.717-2.61 0.298-4.898 0.505-1.14 1.209-2.339 2.062-3.55 0.849 1.093 1.805 2.182 2.854 3.23 1.061 1.061 2.154 2.001 3.246 2.846-2.583 1.824-5.067 2.921-6.832 2.921zM15.369 15.366c-1.094 1.094-2.232 2.082-3.364 2.942-1.135-0.862-2.274-1.847-3.371-2.942-1.094-1.094-2.079-2.229-2.943-3.364 0.864-1.137 1.852-2.273 2.946-3.368 1.093-1.094 2.232-2.082 3.365-2.944 1.132 0.861 2.27 1.849 3.363 2.942 1.136 1.136 2.114 2.265 2.952 3.36-0.864 1.14-1.851 2.277-2.948 3.374zM22 5.999c-0.553 0-1 0.447-1 1s0.447 1 1 1 1-0.447 1-1-0.447-1-1-1zM14 18.999c-0.553 0-1 0.447-1 1s0.447 1 1 1 1-0.447 1-1-0.447-1-1-1zM2 3.999c0.553 0 1-0.447 1-1s-0.447-1-1-1-1 0.447-1 1 0.447 1 1 1z"></path>
</symbol>
<symbol id="icon-graph" viewBox="0 0 24 24">
<path d="M22.998 22.002h-1.998v-1.002h-1.002v1.002h-1.995v-1.002h-1.002v1.002h-1.998v-1.002h-1.002v1.002h-1.998v-1.002h-1.002v1.002h-1.998v-1.002h-1.002v1.002h-4.401l5.27-3.167 2.608-7.622 3.874 6.809 7.507-12.508-1.714-1.030-5.747 9.576-4.376-7.691-3.809 11.128-5.215 3.134v-20.631h-1.998v24h24v-3h-1.002zM22.998 0h1.002v1.002h-1.002zM19.998 0h1.002v1.002h-1.002zM17.001 0h1.002v1.002h-1.002zM14.001 0h1.002v1.002h-1.002zM11.001 0h1.002v1.002h-1.002zM8.001 0h1.002v1.002h-1.002zM5.001 0h1.002v1.002h-1.002zM2.001 0h1.002v1.002h-1.002zM22.998 3h1.002v1.002h-1.002zM19.998 3h1.002v1.002h-1.002zM17.001 3h1.002v1.002h-1.002zM14.001 3h1.002v1.002h-1.002zM11.001 3h1.002v1.002h-1.002zM8.001 3h1.002v1.002h-1.002zM5.001 3h1.002v1.002h-1.002zM2.001 3h1.002v1.002h-1.002zM22.998 5.997h1.002v1.002h-1.002zM17.001 5.997h1.002v1.002h-1.002zM14.001 5.997h1.002v1.002h-1.002zM8.001 5.997h1.002v1.002h-1.002zM5.001 5.997h1.002v1.002h-1.002zM2.001 5.997h1.002v1.002h-1.002zM22.998 8.997h1.002v1.002h-1.002zM14.001 8.997h1.002v1.002h-1.002zM8.001 8.997h1.002v1.002h-1.002zM5.001 8.997h1.002v1.002h-1.002zM2.001 8.997h1.002v1.002h-1.002zM22.998 11.999h1.002v1.002h-1.002zM19.998 11.999h1.002v1.002h-1.002zM5.001 11.999h1.002v1.002h-1.002zM2.001 11.999h1.002v1.002h-1.002zM22.998 14.999h1.002v1.002h-1.002zM19.998 14.999h1.002v1.002h-1.002zM11.001 14.999h1.002v1.002h-1.002zM5.001 14.999h1.002v1.002h-1.002zM2.001 14.999h1.002v1.002h-1.002zM22.998 17.996h1.002v1.002h-1.002zM19.998 17.996h1.002v1.002h-1.002zM17.001 17.996h1.002v1.002h-1.002zM11.001 17.996h1.002v1.002h-1.002zM2.001 17.996h1.002v1.002h-1.002z"></path>
</symbol>
<symbol id="icon-bell" viewBox="0 0 20 20">
<path d="M14.65 8.512c-2.28-4.907-3.466-6.771-7.191-6.693-1.327 0.027-1.009-0.962-2.021-0.587-1.010 0.375-0.143 0.924-1.177 1.773-2.902 2.383-2.635 4.587-1.289 9.84 0.567 2.213-1.367 2.321-0.602 4.465 0.559 1.564 4.679 2.219 9.025 0.607s7.086-4.814 6.527-6.378c-0.765-2.145-2.311-0.961-3.272-3.027zM10.924 16.595c-3.882 1.44-7.072 0.594-7.207 0.217-0.232-0.65 1.253-2.816 5.691-4.463s6.915-1.036 7.174-0.311c0.153 0.429-1.775 3.116-5.658 4.557zM9.676 13.101c-2.029 0.753-3.439 1.614-4.353 2.389 0.643 0.584 1.847 0.726 3.046 0.281 1.527-0.565 2.466-1.866 2.095-2.904-0.005-0.013-0.011-0.023-0.016-0.036-0.251 0.082-0.508 0.171-0.772 0.27z"></path>
</symbol>
<symbol id="icon-eye" viewBox="0 0 20 20">
<path d="M10 4.4c-6.561 0-10 4.832-10 5.6 0 0.766 3.439 5.6 10 5.6s10-4.834 10-5.6c0-0.768-3.44-5.6-10-5.6zM10 14.307c-2.455 0-4.445-1.928-4.445-4.307s1.99-4.309 4.445-4.309c2.455 0 4.444 1.93 4.444 4.309s-1.989 4.307-4.444 4.307zM10 10c-0.407-0.447 0.663-2.154 0-2.154-1.228 0-2.223 0.965-2.223 2.154s0.995 2.154 2.223 2.154c1.227 0 2.223-0.965 2.223-2.154 0-0.547-1.877 0.379-2.223 0z"></path>
</symbol>
<symbol id="icon-basecamp" viewBox="0 0 20 20">
<path d="M10 2c-4.673 0-9.3 6.481-9.3 12.422 0 1.377 4.534 3.578 9.3 3.578s9.3-2.201 9.3-3.578c0-5.941-4.627-12.422-9.3-12.422zM10.006 15.615c-5.198 0-6.673-2.068-6.673-2.722 0-1.287 2.13-4.485 2.906-4.485 0.719 0 1.542 1.811 2.314 1.811 1.241 0 2.567-3.954 3.579-3.954s4.601 5.178 4.601 6.749c0 0.271-1.084 2.601-6.727 2.601z"></path>
</symbol>
</defs>
</svg>
